REM DIRINDEX 1\2,1\3
REM DIRNAME folder01,folder02,folder03
TITLE ""
FILE "3261-3280.mp3" MP3
  TRACK 01 AUDIO
    TITLE "0:"
    INDEX 01 00:00:00
  TRACK 02 AUDIO
    TITLE "2:cjc039_5521"
    INDEX 01 00:00:25
  TRACK 03 AUDIO
    TITLE "0:"
    INDEX 01 00:01:19
  TRACK 04 AUDIO
    TITLE "3:cjc039_5522"
    INDEX 01 00:01:71
  TRACK 05 AUDIO
    TITLE "0:"
    INDEX 01 00:04:54
  TRACK 06 AUDIO
    TITLE "2:cjc039_5523"
    INDEX 01 00:06:33
  TRACK 07 AUDIO
    TITLE "0:"
    INDEX 01 00:07:66
  TRACK 08 AUDIO
    TITLE "3:cjc039_5524"
    INDEX 01 00:08:40
  TRACK 09 AUDIO
    TITLE "0:"
    INDEX 01 00:12:65
  TRACK 10 AUDIO
    TITLE "2:cjc039_5525"
    INDEX 01 00:14:45
  TRACK 11 AUDIO
    TITLE "0:"
    INDEX 01 00:15:52
  TRACK 12 AUDIO
    TITLE "3:cjc039_5526"
    INDEX 01 00:16:28
  TRACK 13 AUDIO
    TITLE "0:"
    INDEX 01 00:19:58
  TRACK 14 AUDIO
    TITLE "2:cjc039_5527"
    INDEX 01 00:21:37
  TRACK 15 AUDIO
    TITLE "0:"
    INDEX 01 00:23:06
  TRACK 16 AUDIO
    TITLE "3:cjc039_5528"
    INDEX 01 00:23:59
  TRACK 17 AUDIO
    TITLE "0:"
    INDEX 01 00:27:18
  TRACK 18 AUDIO
    TITLE "2:cjc039_5529"
    INDEX 01 00:28:68
  TRACK 19 AUDIO
    TITLE "0:"
    INDEX 01 00:30:18
  TRACK 20 AUDIO
    TITLE "3:cjc039_5530"
    INDEX 01 00:30:71
  TRACK 21 AUDIO
    TITLE "0:"
    INDEX 01 00:34:32
  TRACK 22 AUDIO
    TITLE "2:cjc039_5531"
    INDEX 01 00:36:09
  TRACK 23 AUDIO
    TITLE "0:"
    INDEX 01 00:37:69
  TRACK 24 AUDIO
    TITLE "3:cjc039_5532"
    INDEX 01 00:38:41
  TRACK 25 AUDIO
    TITLE "0:"
    INDEX 01 00:43:09
  TRACK 26 AUDIO
    TITLE "2:cjc039_5533"
    INDEX 01 00:44:56
  TRACK 27 AUDIO
    TITLE "0:"
    INDEX 01 00:45:61
  TRACK 28 AUDIO
    TITLE "3:cjc039_5534"
    INDEX 01 00:46:43
  TRACK 29 AUDIO
    TITLE "0:"
    INDEX 01 00:49:61
  TRACK 30 AUDIO
    TITLE "2:cjc039_5535"
    INDEX 01 00:51:34
  TRACK 31 AUDIO
    TITLE "0:"
    INDEX 01 00:52:71
  TRACK 32 AUDIO
    TITLE "3:cjc039_5536"
    INDEX 01 00:53:41
  TRACK 33 AUDIO
    TITLE "0:"
    INDEX 01 00:58:09
  TRACK 34 AUDIO
    TITLE "2:cjc039_5537"
    INDEX 01 00:59:59
  TRACK 35 AUDIO
    TITLE "0:"
    INDEX 01 01:01:05
  TRACK 36 AUDIO
    TITLE "3:cjc039_5538"
    INDEX 01 01:01:52
  TRACK 37 AUDIO
    TITLE "0:"
    INDEX 01 01:05:64
  TRACK 38 AUDIO
    TITLE "2:cjc039_5539"
    INDEX 01 01:07:41
  TRACK 39 AUDIO
    TITLE "0:"
    INDEX 01 01:09:09
  TRACK 40 AUDIO
    TITLE "3:cjc039_5540"
    INDEX 01 01:09:59
  TRACK 41 AUDIO
    TITLE "0:"
    INDEX 01 01:13:34
  TRACK 42 AUDIO
    TITLE "2:cjc039_5541"
    INDEX 01 01:15:13
  TRACK 43 AUDIO
    TITLE "0:"
    INDEX 01 01:16:18
  TRACK 44 AUDIO
    TITLE "3:cjc039_5542"
    INDEX 01 01:16:73
  TRACK 45 AUDIO
    TITLE "0:"
    INDEX 01 01:19:68
  TRACK 46 AUDIO
    TITLE "2:cjc039_5543"
    INDEX 01 01:21:41
  TRACK 47 AUDIO
    TITLE "0:"
    INDEX 01 01:24:67
  TRACK 48 AUDIO
    TITLE "3:cjc039_5544"
    INDEX 01 01:25:45
  TRACK 49 AUDIO
    TITLE "0:"
    INDEX 01 01:28:71
  TRACK 50 AUDIO
    TITLE "2:cjc039_5545"
    INDEX 01 01:30:48
  TRACK 51 AUDIO
    TITLE "0:"
    INDEX 01 01:31:69
  TRACK 52 AUDIO
    TITLE "3:cjc039_5546"
    INDEX 01 01:32:49
  TRACK 53 AUDIO
    TITLE "0:"
    INDEX 01 01:36:27
  TRACK 54 AUDIO
    TITLE "2:cjc039_5547"
    INDEX 01 01:38:04
  TRACK 55 AUDIO
    TITLE "0:"
    INDEX 01 01:39:31
  TRACK 56 AUDIO
    TITLE "3:cjc039_5548"
    INDEX 01 01:40:07
  TRACK 57 AUDIO
    TITLE "0:"
    INDEX 01 01:43:60
  TRACK 58 AUDIO
    TITLE "2:cjc039_5549"
    INDEX 01 01:45:38
  TRACK 59 AUDIO
    TITLE "0:"
    INDEX 01 01:46:31
  TRACK 60 AUDIO
    TITLE "3:cjc039_5550"
    INDEX 01 01:47:11
  TRACK 61 AUDIO
    TITLE "0:"
    INDEX 01 01:50:70
  TRACK 62 AUDIO
    TITLE "2:cjc039_5551"
    INDEX 01 01:52:46
  TRACK 63 AUDIO
    TITLE "0:"
    INDEX 01 01:54:05
  TRACK 64 AUDIO
    TITLE "3:cjc039_5552"
    INDEX 01 01:54:56
  TRACK 65 AUDIO
    TITLE "0:"
    INDEX 01 01:58:36
  TRACK 66 AUDIO
    TITLE "2:cjc039_5553"
    INDEX 01 02:00:10
  TRACK 67 AUDIO
    TITLE "0:"
    INDEX 01 02:01:23
  TRACK 68 AUDIO
    TITLE "3:cjc039_5554"
    INDEX 01 02:02:03
  TRACK 69 AUDIO
    TITLE "0:"
    INDEX 01 02:05:05
  TRACK 70 AUDIO
    TITLE "2:cjc039_5555"
    INDEX 01 02:06:54
  TRACK 71 AUDIO
    TITLE "0:"
    INDEX 01 02:08:07
  TRACK 72 AUDIO
    TITLE "3:cjc039_5556"
    INDEX 01 02:08:60
  TRACK 73 AUDIO
    TITLE "0:"
    INDEX 01 02:12:74
  TRACK 74 AUDIO
    TITLE "2:cjc039_5557"
    INDEX 01 02:14:51
  TRACK 75 AUDIO
    TITLE "0:"
    INDEX 01 02:15:51
  TRACK 76 AUDIO
    TITLE "3:cjc039_5558"
    INDEX 01 02:16:26
  TRACK 77 AUDIO
    TITLE "0:"
    INDEX 01 02:19:01
  TRACK 78 AUDIO
    TITLE "2:cjc039_5559"
    INDEX 01 02:20:54
  TRACK 79 AUDIO
    TITLE "0:"
    INDEX 01 02:22:06
  TRACK 80 AUDIO
    TITLE "3:cjc039_5560"
    INDEX 01 02:22:51
  TRACK 81 AUDIO
    TITLE "0:"
    INDEX 01 02:27:42
